<svg width="34" height="34" viewBox="0 0 34 34" fill="none" xmlns="http://www.w3.org/2000/svg">
<g clip-path="url(#clip0_213_319)">
<rect width="34" height="34" fill="white"/>
<path d="M7.79785 9.12863C7.79785 8.39408 8.41281 7.79785 9.17087 7.79785H25.0027C25.761 7.79785 26.3757 8.39408 26.3757 9.12863V25.0451C26.3757 25.7799 25.761 26.3757 25.0027 26.3757H9.17087C8.41288 26.3757 7.79785 25.78 7.79785 25.0453V9.12842V9.12863Z" fill="#1D1D1D"/>
<path d="M13.4429 23.3453V14.9815H10.6629V23.3453H13.4432H13.4429ZM12.0535 13.8398C13.0227 13.8398 13.6261 13.1976 13.6261 12.3949C13.608 11.574 13.0227 10.9497 12.0719 10.9497C11.1204 10.9497 10.499 11.574 10.499 12.3949C10.499 13.1975 11.1022 13.8397 12.0353 13.8397H12.0532L12.0535 13.8398ZM14.9817 23.3453H17.7614V18.6751C17.7614 18.4255 17.7796 18.1752 17.853 17.9969C18.0539 17.4972 18.5113 16.98 19.2794 16.98C20.2851 16.98 20.6877 17.7469 20.6877 18.8714V23.3453H23.4674V18.5498C23.4674 15.9809 22.0961 14.7854 20.2671 14.7854C18.7676 14.7854 18.109 15.6236 17.7431 16.1944H17.7617V14.9818H14.9818C15.0181 15.7664 14.9816 23.3456 14.9816 23.3456L14.9817 23.3453Z" fill="white"/>
</g>
<defs>
<clipPath id="clip0_213_319">
<rect width="34" height="34" fill="white"/>
</clipPath>
</defs>
</svg>
